<svg width="25" height="24" viewBox="0 0 25 24" fill="none" xmlns="http://www.w3.org/2000/svg">
<path d="M12.0152 9.59456e-06C9.27727 -0.00345125 6.62049 0.929455 4.48581 2.64389C2.35113 4.35833 0.866898 6.7512 0.279468 9.42535C-0.307962 12.0995 0.0367307 14.8941 1.25634 17.3454C2.47594 19.7967 4.49712 21.7572 6.98441 22.9015C7.09527 22.9624 7.21747 22.9999 7.3434 23.0116C7.46934 23.0233 7.59634 23.0089 7.71652 22.9695C7.83669 22.9301 7.94748 22.8664 8.04201 22.7823C8.13654 22.6983 8.2128 22.5957 8.26604 22.481C8.31928 22.3663 8.34838 22.2418 8.35153 22.1154C8.35468 21.989 8.3318 21.8632 8.28433 21.746C8.23686 21.6288 8.16581 21.5225 8.07558 21.4339C7.98534 21.3453 7.87786 21.2761 7.7598 21.2308C5.484 20.1879 3.6737 18.341 2.67648 16.0448C1.67926 13.7486 1.56544 11.165 2.35686 8.78999C3.14828 6.41501 4.78915 4.41609 6.96441 3.17708C9.13966 1.93806 11.696 1.54628 14.1424 2.07697C16.5889 2.60766 18.7531 4.02341 20.2195 6.05237C21.6859 8.08132 22.351 10.5805 22.0873 13.0699C21.8235 15.5594 20.6494 17.8636 18.7904 19.5402C16.9314 21.2168 14.5185 22.1476 12.0152 22.1538C11.7704 22.1538 11.5356 22.2511 11.3625 22.4242C11.1894 22.5973 11.0921 22.8321 11.0921 23.0769C11.0921 23.3217 11.1894 23.5565 11.3625 23.7296C11.5356 23.9027 11.7704 24 12.0152 24C15.1978 24 18.25 22.7357 20.5005 20.4853C22.7509 18.2348 24.0152 15.1826 24.0152 12C24.0152 8.81741 22.7509 5.76516 20.5005 3.51473C18.25 1.26429 15.1978 9.59456e-06 12.0152 9.59456e-06V9.59456e-06Z" fill="currentColor"/>
<path d="M18.569 10.6801C18.7069 10.7583 18.8627 10.7996 19.0213 10.8001C19.2249 10.7995 19.4226 10.7316 19.5836 10.6069C19.7445 10.4823 19.8598 10.3079 19.9114 10.111C19.963 9.91404 19.9481 9.70556 19.8689 9.518C19.7897 9.33044 19.6507 9.17431 19.4736 9.07393C15.7813 6.97855 10.9444 6.45239 5.11053 7.47701C4.99111 7.49818 4.87703 7.54267 4.7748 7.60795C4.67258 7.67322 4.58423 7.75801 4.51479 7.85745C4.44535 7.95689 4.39619 8.06904 4.37012 8.18749C4.34405 8.30594 4.34158 8.42837 4.36284 8.54778C4.38401 8.6672 4.4285 8.78129 4.49378 8.88351C4.55906 8.98573 4.64384 9.07408 4.74328 9.14352C4.84272 9.21296 4.95487 9.26212 5.07333 9.28819C5.19178 9.31426 5.3142 9.31674 5.43361 9.29547C10.8336 8.30778 15.2459 8.80624 18.569 10.6801Z" fill="currentColor"/>
<path d="M6.16287 12.9231C10.6675 11.9262 14.3413 12.4062 17.1013 14.3447C17.2572 14.4575 17.4443 14.5188 17.6367 14.52C17.7855 14.5198 17.9321 14.4836 18.0639 14.4145C18.1957 14.3454 18.3088 14.2454 18.3936 14.1231C18.5338 13.9234 18.5891 13.6763 18.5476 13.4359C18.5061 13.1954 18.3711 12.9812 18.1721 12.84C14.969 10.5785 10.7875 10.0062 5.76595 11.1139C5.52113 11.1665 5.30725 11.3143 5.17136 11.5246C5.03547 11.7349 4.9887 11.9906 5.04133 12.2354C5.09397 12.4802 5.2417 12.6941 5.45203 12.83C5.66236 12.9659 5.91805 13.0127 6.16287 12.9601V12.9231Z" fill="currentColor"/>
<path d="M6.95674 16.4216C10.4644 15.7108 13.3167 16.0523 15.449 17.4277C15.5976 17.5237 15.7706 17.5749 15.9475 17.5754C16.1466 17.5749 16.3401 17.51 16.4993 17.3905C16.6585 17.271 16.7748 17.1033 16.8308 16.9123C16.8869 16.7213 16.8797 16.5173 16.8103 16.3307C16.741 16.1441 16.6132 15.985 16.446 15.8769C13.8614 14.2246 10.5844 13.8462 6.59674 14.6123C6.35193 14.6601 6.1361 14.8031 5.99675 15.01C5.85739 15.2168 5.80592 15.4706 5.85366 15.7154C5.9014 15.9602 6.04444 16.176 6.25131 16.3154C6.45817 16.4548 6.71193 16.5062 6.95674 16.4585V16.4216Z" fill="currentColor"/>
</svg>
