<svg width="30" height="30" viewBox="0 0 30 30" fill="none" xmlns="http://www.w3.org/2000/svg">
<mask id="path-1-inside-1" fill="white">
<path d="M20.2046 6.4247C18.0748 4.46676 16.949 2.24514 16.949 0H14.5166V20.543C14.0107 20.3351 13.4535 20.2251 12.8702 20.2251C11.4547 20.2251 10.0108 20.8572 8.90882 21.9593C6.8539 24.0141 6.59671 27.1004 8.33542 28.8392C9.08396 29.5878 10.1205 30 11.2539 30C12.6694 30 14.1133 29.3679 15.2153 28.2658C16.1756 27.3056 16.7808 26.0895 16.9195 24.8415C16.9393 24.6632 16.9483 24.4864 16.9483 24.3114H16.9491V12.9589C17.42 13.5511 17.9565 14.1259 18.5584 14.6792C21.1346 17.0475 20.5908 20.0745 19.3426 21.947L21.3664 23.2963C22.8085 21.1332 23.3857 18.1515 22.1177 15.4499C23.3168 12.6784 23.1548 9.13711 20.2046 6.4247ZM16.9495 6.49581C17.4203 7.08778 17.9567 7.66232 18.5583 8.21546C20.1725 9.69949 20.5616 11.442 20.3202 12.9971C20.282 12.9608 20.2439 12.9245 20.2046 12.8884C18.0849 10.9398 16.9603 8.73 16.9495 6.49581Z"/>
</mask>
<path d="M20.2046 6.4247C18.0748 4.46676 16.949 2.24514 16.949 0H14.5166V20.543C14.0107 20.3351 13.4535 20.2251 12.8702 20.2251C11.4547 20.2251 10.0108 20.8572 8.90882 21.9593C6.8539 24.0141 6.59671 27.1004 8.33542 28.8392C9.08396 29.5878 10.1205 30 11.2539 30C12.6694 30 14.1133 29.3679 15.2153 28.2658C16.1756 27.3056 16.7808 26.0895 16.9195 24.8415C16.9393 24.6632 16.9483 24.4864 16.9483 24.3114H16.9491V12.9589C17.42 13.5511 17.9565 14.1259 18.5584 14.6792C21.1346 17.0475 20.5908 20.0745 19.3426 21.947L21.3664 23.2963C22.8085 21.1332 23.3857 18.1515 22.1177 15.4499C23.3168 12.6784 23.1548 9.13711 20.2046 6.4247ZM16.9495 6.49581C17.4203 7.08778 17.9567 7.66232 18.5583 8.21546C20.1725 9.69949 20.5616 11.442 20.3202 12.9971C20.282 12.9608 20.2439 12.9245 20.2046 12.8884C18.0849 10.9398 16.9603 8.73 16.9495 6.49581Z" fill="currentColor"/>
<path d="M20.2046 6.4247L22.9118 3.48005L22.9117 3.47999L20.2046 6.4247ZM16.949 0H20.949V-4H16.949V0ZM14.5166 0V-4H10.5166V0H14.5166ZM14.5166 20.543L12.9961 24.2428L18.5166 26.5115V20.543H14.5166ZM8.90882 21.9593L11.7372 24.7878L11.7374 24.7876L8.90882 21.9593ZM8.33542 28.8392L5.50686 31.6675L5.50699 31.6677L8.33542 28.8392ZM15.2153 28.2658L12.3869 25.4374L12.3868 25.4375L15.2153 28.2658ZM16.9195 24.8415L20.895 25.2831L20.8951 25.2828L16.9195 24.8415ZM16.9483 24.3114V20.3114H12.9483V24.3114H16.9483ZM16.9491 24.3114V28.3114H20.9491V24.3114H16.9491ZM16.9491 12.9589L20.0799 10.4693L12.9491 1.50175V12.9589H16.9491ZM18.5584 14.6792L21.2655 11.7345L21.2655 11.7344L18.5584 14.6792ZM19.3426 21.947L16.0143 19.7284L13.7958 23.0565L17.1237 25.2752L19.3426 21.947ZM21.3664 23.2963L19.1476 26.6245L22.4759 28.8434L24.6947 25.5151L21.3664 23.2963ZM22.1177 15.4499L18.4465 13.8616L17.7304 15.5168L18.4967 17.1495L22.1177 15.4499ZM16.9495 6.49581L20.08 4.00588L12.8938 -5.02917L12.9495 6.51512L16.9495 6.49581ZM18.5583 8.21546L15.851 11.1601L15.8511 11.1602L18.5583 8.21546ZM20.3202 12.9971L17.5634 15.8954L23.1007 21.1624L24.2728 13.6106L20.3202 12.9971ZM20.2046 12.8884L22.9119 9.94383L22.9117 9.94364L20.2046 12.8884ZM22.9117 3.47999C21.3539 2.04783 20.949 0.824171 20.949 0H12.949C12.949 3.6661 14.7957 6.88568 17.4974 9.36941L22.9117 3.47999ZM16.949 -4H14.5166V4H16.949V-4ZM10.5166 0V20.543H18.5166V0H10.5166ZM16.037 16.8433C15.0331 16.4307 13.9578 16.2251 12.8702 16.2251V24.2251C12.9492 24.2251 12.9883 24.2396 12.9961 24.2428L16.037 16.8433ZM12.8702 16.2251C10.2815 16.2251 7.84916 17.3619 6.08029 19.1309L11.7374 24.7876C12.1724 24.3525 12.6278 24.2251 12.8702 24.2251V16.2251ZM6.08045 19.1308C2.92462 22.2865 1.78183 27.9422 5.50686 31.6675L11.164 26.0109C11.247 26.0939 11.1645 26.1043 11.1857 25.85C11.2077 25.5857 11.3508 25.1742 11.7372 24.7878L6.08045 19.1308ZM5.50699 31.6677C7.06251 33.2232 9.14281 34 11.2539 34V26C11.1728 26 11.1338 25.9856 11.1286 25.9835C11.1255 25.9823 11.1288 25.9833 11.1365 25.9883C11.1442 25.9934 11.1539 26.0009 11.1638 26.0108L5.50699 31.6677ZM11.2539 34C13.8426 34 16.275 32.8632 18.0438 31.0942L12.3868 25.4375C11.9517 25.8726 11.4963 26 11.2539 26V34ZM18.0437 31.0943C19.5902 29.5478 20.6477 27.5097 20.895 25.2831L12.9439 24.3998C12.914 24.6693 12.7609 25.0634 12.3869 25.4374L18.0437 31.0943ZM20.8951 25.2828C20.9322 24.9482 20.9483 24.6237 20.9483 24.3114H12.9483C12.9483 24.3492 12.9463 24.3783 12.9439 24.4001L20.8951 25.2828ZM16.9483 28.3114H16.9491V20.3114H16.9483V28.3114ZM20.9491 24.3114V12.9589H12.9491V24.3114H20.9491ZM13.8182 15.4484C14.4256 16.2122 15.1053 16.9382 15.8512 17.6239L21.2655 11.7344C20.8077 11.3136 20.4144 10.89 20.0799 10.4693L13.8182 15.4484ZM15.8512 17.6239C16.1234 17.8741 16.2417 18.0729 16.2978 18.197C16.3548 18.3231 16.3824 18.4498 16.3857 18.5924C16.3933 18.9167 16.268 19.3478 16.0143 19.7284L22.6709 24.1657C23.6654 22.6737 24.4361 20.655 24.3835 18.4056C24.3283 16.0391 23.3586 13.6587 21.2655 11.7345L15.8512 17.6239ZM17.1237 25.2752L19.1476 26.6245L23.5853 19.9681L21.5614 18.6188L17.1237 25.2752ZM24.6947 25.5151C26.7452 22.4392 27.7198 17.9714 25.7386 13.7504L18.4967 17.1495C19.0516 18.3317 18.8717 19.8273 18.0382 21.0775L24.6947 25.5151ZM25.7888 17.0382C27.5408 12.9888 27.3289 7.54099 22.9118 3.48005L17.4973 9.36936C18.9808 10.7332 19.0928 12.368 18.4465 13.8616L25.7888 17.0382ZM13.8189 8.98574C14.4261 9.74911 15.1055 10.4747 15.851 11.1601L21.2656 5.27086C20.8078 4.84999 20.4145 4.42646 20.08 4.00588L13.8189 8.98574ZM15.8511 11.1602C16.1852 11.4673 16.2931 11.7012 16.3362 11.8321C16.3838 11.9764 16.4031 12.1541 16.3675 12.3836L24.2728 13.6106C24.7018 10.8468 23.9426 7.73197 21.2654 5.27076L15.8511 11.1602ZM23.077 10.0988C23.0457 10.0692 22.9812 10.0075 22.9119 9.94383L17.4973 15.833C17.5066 15.8415 17.5182 15.8525 17.5634 15.8954L23.077 10.0988ZM22.9117 9.94364C21.3616 8.51867 20.9534 7.29946 20.9494 6.4765L12.9495 6.51512C12.9671 10.1605 14.8082 13.3609 17.4975 15.8332L22.9117 9.94364Z" fill="currentColor" mask="url(#path-1-inside-1)"/>
</svg>
