<svg width="30" height="30" viewBox="0 0 30 30" fill="none" xmlns="http://www.w3.org/2000/svg">
<g clip-path="url(#clip0)">
<path d="M25.6193 1.23207C25.6193 0.551616 25.0677 0 24.3872 0H1.23207C0.551616 0 0 0.551616 0 1.23207V24.3872C0 25.0677 0.551616 25.6193 1.23207 25.6193C1.91253 25.6193 2.46414 25.0677 2.46414 24.3872V2.46414H24.3872C25.0677 2.46414 25.6193 1.91253 25.6193 1.23207Z" fill="currentColor"/>
<path d="M28.7679 4.38086H5.61281C4.93235 4.38086 4.38074 4.93248 4.38074 5.61293V28.7681C4.38074 29.4485 4.93235 30.0001 5.61281 30.0001H28.7679C29.4484 30.0001 30 29.4485 30 28.7681V5.61293C30 4.93248 29.4484 4.38086 28.7679 4.38086V4.38086ZM22.3602 14.9253C22.0558 15.5339 21.3157 15.7805 20.7071 15.4764L18.7354 14.4904V20.0066C18.7354 22.0663 17.0597 23.742 15 23.742C12.9403 23.742 11.2647 22.0663 11.2647 20.0066C11.2647 17.947 12.9403 16.2714 15 16.2714H16.2712V12.4969C16.2712 11.5812 17.2365 10.9861 18.0543 11.3949L21.8092 13.2723C22.4178 13.5766 22.6644 14.3167 22.3602 14.9253Z" fill="currentColor"/>
</g>
<defs>
<clipPath id="clip0">
<rect width="30" height="30" fill="white"/>
</clipPath>
</defs>
</svg>
